# AST/ASF file generated using VICON BodyLanguage
# -----------------------------------------------
:version 1.10
:name VICON
:units
  mass 1.0
  length 0.45
  angle deg
:documentation
   .ast/.asf automatically generated from VICON data using
   VICON BodyBuilder and BodyLanguage model FoxedUp or BRILLIANT.MOD
:root
   order TX TY TZ RX RY RZ
   axis XYZ
   position 0 0 0  
   orientation 0 0 0 
:bonedata
  begin
     id 1 
     name lhipjoint
     direction 0.521689 -0.742065 0.420928 
     length 2.47002 
     axis 0 0 0  XYZ
  end
  begin
     id 2 
     name lfemur
     direction 0.34202 -0.939693 0  
     length 7.24654  
     axis 0 0 20  XYZ
    dof rx ry rz
    limits (-160.0 20.0)
           (-70.0 70.0)
           (-60.0 70.0)
  end
  begin
     id 3 
     name ltibia
     direction 0.34202 -0.939693 0   
     length 8.04849   
     axis 0 0 20   XYZ
    dof rx
    limits (-10.0 170.0)
  end
  begin
     id 4 
     name lfoot
     direction 0.0745411 -0.2048 0.975961   
     length 1.72367   
     axis -90 7.62852e-016 20   XYZ
    dof rx rz
    limits (-45.0 90.0)
           (-70.0 20.0)
  end
  begin
     id 5 
     name ltoes
     direction 1.53556e-011 -4.21901e-011 1   
     length 0.87311   
     axis -90 7.62852e-016 20   XYZ
    dof rx
    limits (-90.0 20.0)
  end
  begin
     id 6 
     name rhipjoint
     direction -0.52849 -0.738415 0.418857   
     length 2.48223  
     axis 0 0 0  XYZ 
  end
  begin
     id 7 
     name rfemur
     direction -0.34202 -0.939693 0   
     length 7.15571   
     axis 0 0 -20   XYZ
    dof rx ry rz
    limits (-160.0 20.0)
           (-70.0 70.0)
           (-70.0 60.0)
  end
  begin
     id 8 
     name rtibia
     direction -0.34202 -0.939693 0   
     length 7.81659   
     axis 0 0 -20   XYZ
    dof rx
    limits (-10.0 170.0)
 end
 begin
     id 9 
     name rfoot
     direction -0.0917348 -0.252039 0.963359   
     length 1.84382  
     axis -90 -7.62852e-016 -20   XYZ
    dof rx rz
    limits (-45.0 90.0)
           (-20.0 70.0)
  end
  begin
     id 10 
     name rtoes
     direction -1.53551e-011 -4.21879e-011 1   
     length 0.927771   
     axis -90 -7.62852e-016 -20   XYZ
    dof rx
    limits (-90.0 20.0)
  end
  begin
     id 11 
     name lowerback
     direction 0.00583058 0.999822 0.0179296   
     length 2.1429   
     axis 0 0 0   XYZ
    dof rx ry rz
    limits (-20.0 45.0)
           (-30.0 30.0)
           (-30.0 30.0)
  end
  begin
     id 12 
     name upperback
     direction -0.0137999 0.999752 -0.0175071   
     length 2.14252   
     axis 0 0 0   XYZ
    dof rx ry rz
    limits (-20.0 45.0)
           (-30.0 30.0)
           (-30.0 30.0)
  end
  begin
     id 13 
     name thorax
     direction -0.0158036 0.99955 -0.0254909   
     length 2.1383   
     axis 0 0 0   XYZ
    dof rx ry rz
    limits (-20.0 45.0)
           (-30.0 30.0)
           (-30.0 30.0)
  end
  begin
     id 14 
     name lowerneck
     direction -0.0101179 0.999403 -0.0330262   
     length 1.65808   
     axis 0 0 0   XYZ
    dof rx ry rz
    limits (-20.0 45.0)
           (-30.0 30.0)
           (-30.0 30.0)
  end
  begin
     id 15 
     name upperneck
     direction 0.0497734 0.995978 -0.074501   
     length 1.5897   
     axis 0 0 0   XYZ
    dof rx ry rz
    limits (-20.0 45.0)
           (-30.0 30.0)
           (-30.0 30.0)
  end
  begin
     id 16
     name head
     direction 0.0189524 0.999519 -0.0245438  
     length 1.74024  
     axis 0 0 0   XYZ
    dof rx ry rz
    limits (-20.0 45.0)
           (-30.0 30.0)
           (-30.0 30.0)
  end
  begin
     id 17 
     name lclavicle
     direction 0.945604 0.324422 0.0241537  
     length 3.59089  
     axis 0 0 0   XYZ
    dof ry rz
    limits (-20.0 10.0)
           (0.0 20.0)
  end
  begin
     id 18 
     name lhumerus
     direction 1 -4.48964e-011 -2.63524e-027   
     length 5.2391   
     axis 180 -30 -90   XYZ
    dof rx ry rz
    limits (-60.0 90.0)
           (-90.0 90.0)
           (-90.0 90.0)
  end
  begin
     id 19
     name lradius
     direction 1 -4.48969e-011 3.86978e-028   
     length 3.31467   
     axis 180 -30 -90   XYZ
    dof rx
    limits (-10.0 170.0)
  end
  begin
     id 20
     name lwrist
     direction 1 -4.48963e-011 7.20928e-028   
     length 1.65734   
     axis -5.52449e-016 90 90   XYZ
    dof ry
    limits (-180.0 0.0)
 end
  begin
     id 21 
     name lhand
     direction 1 -4.48964e-011 1.44186e-027   
     length 0.9659   
     axis -9.20027e-016 90 90   XYZ
    dof rx rz
    limits (-90.0 90.0)
           (-45.0 45.0)
  end
  begin
     id 22 
     name lfingers
     direction 1 -4.48965e-011 2.88371e-027   
     length 0.778733   
     axis -1.84005e-015 90 90   XYZ
    dof rx
    limits (0.0 90.0)
  end
  begin
     id 23
     name lthumb
     direction 0.707107 -6.34931e-011 0.707107   
     length 1.11811   
     axis -90 45 2.85299e-015   XYZ
    dof rx rz
    limits (-45.0 45.0)
           (-45.0 45.0)
  end
  begin
     id 24 
     name rclavicle
     direction -0.923762 0.370785 0.0958234   
     length 3.54196  
     axis 0 0 0   XYZ 
    dof ry rz
    limits (-10.0 20.0)
           (-20.0 0.0)
  end
  begin
     id 25 
     name rhumerus
     direction -1 -4.48966e-011 1.18702e-017  
     length 5.30252   
     axis 180 30 90   XYZ
    dof rx ry rz
    limits (-90.0 60.0)
           (-90.0 90.0)
           (-90.0 90.0)
  end
  begin
     id 26 
     name rradius
     direction -1 -4.48966e-011 4.46736e-027   
     length 3.67875   
     axis 180 30 90   XYZ
    dof rx
    limits (-10.0 170.0)
  end
  begin
     id 27 
     name rwrist
     direction -1 -4.48966e-011 7.20928e-028   
     length 1.83937   
     axis -5.52449e-016 -90 -90   XYZ
    dof ry
    limits (-180.0 0.0)
  end
  begin
     id 28
     name rhand
     direction -1 -4.48973e-011 1.44186e-027   
     length 0.594811   
     axis -9.20027e-016 -90 -90   XYZ
    dof rx rz
    limits (-90.0 90.0)
           (-45.0 45.0)
  end
  begin
     id 29
     name rfingers
     direction -1 -4.48963e-011 2.88371e-027   
     length 0.479552   
     axis -1.84005e-015 -90 -90   XYZ
    dof rx
    limits (0.0 90.0)
  end
  begin
     id 30
     name rthumb
     direction -0.707107 -6.34932e-011 0.707107   
     length 0.688544   
     axis -90 -45 -2.85299e-015   XYZ
    dof rx rz
    limits (-45.0 45.0)
           (-45.0 45.0)
  end
:hierarchy
  begin
    root lhipjoint rhipjoint lowerback
    lhipjoint lfemur
    lfemur ltibia
    ltibia lfoot
    lfoot ltoes
    rhipjoint rfemur
    rfemur rtibia
    rtibia rfoot
    rfoot rtoes
    lowerback upperback
    upperback thorax
    thorax lowerneck lclavicle rclavicle
    lowerneck upperneck
    upperneck head
    lclavicle lhumerus
    lhumerus lradius
    lradius lwrist
    lwrist lhand lthumb
    lhand lfingers
    rclavicle rhumerus
    rhumerus rradius
    rradius rwrist
    rwrist rhand rthumb
    rhand rfingers
  end

#!OML:ASF E:\acrobat2\Project_11_07_03\Capture day 1\Session 1\Acrobat.ASF
:FULLY-SPECIFIED
:DEGREES
464
root 12.8958 14.3974 8.10895 -45.7694 0.112435 -180.955
lowerback -2.27955 -0.637452 2.66866
upperback -3.89589 -0.959799 -0.931477
thorax -2.78731 -0.609008 -2.44976
lowerneck 0.436931 -0.754803 -2.29044
upperneck -20.5962 -1.01065 4.6657
head -6.26122 -1.17472 1.98739
rclavicle -9.74045e-015 -5.2181e-015
rhumerus 63.4775 -5.78559 -49.9502
rradius 46.6028
rwrist -8.83312
rhand -46.768 -78.9681
rfingers 7.12502
rthumb -19.4843 -251.988
lclavicle -9.74045e-015 -5.2181e-015
lhumerus 59.3056 4.78781 39.5751
lradius 45.5467
lwrist 16.5131
lhand -56.8136 -58.829
lfingers 7.12502
lthumb -29.1135 -31.0848
rfemur -1.35618 -8.79396 17.5628
rtibia 55.1761
rfoot 0.327686 -10.7475
rtoes -6.28823
lfemur 170.738 171.363 173.779
ltibia 58.9354
lfoot -0.666213 1.19267
ltoes 24.4308
465
root 12.901 14.246 8.15144 -46.8218 0.364327 -181.25
lowerback -2.81369 -0.761672 2.35783
upperback -3.63026 -1.13153 -0.772542
thorax -2.21268 -0.671241 -2.12228
lowerneck 0.00447879 -0.702579 -2.34175
upperneck -19.4856 -0.925545 4.72854
head -5.83656 -1.07985 1.98367
rclavicle 6.95746e-016 2.83268e-015
rhumerus 62.4013 -4.97675 -49.6335
rradius 47.1071
rwrist -8.28358
rhand -46.5412 -79.0855
rfingers 7.12502
rthumb -19.2662 -251.849
lclavicle 6.95746e-016 2.83268e-015
lhumerus 58.2928 3.88882 39.8121
lradius 45.8384
lwrist 16.0505
lhand -57.0156 -59.5616
lfingers 7.12502
lthumb -29.3063 -31.851
rfemur 2.54699 -8.9277 16.9939
rtibia 56.5888
rfoot 0.374204 -10.831
rtoes -6.81365
lfemur 174.791 171.742 174.618
ltibia 59.2614
lfoot -1.15559 1.70518
ltoes 25.0135
466
root 12.9044 14.1094 8.19442 -47.9355 0.531633 -181.573
lowerback -3.24614 -0.866283 2.14023
upperback -3.37339 -1.27202 -0.601462
thorax -1.70362 -0.722879 -1.8364
lowerneck -0.609964 -0.610015 -2.42295
upperneck -18.1803 -0.773357 4.89671
head -5.32654 -0.951556 2.01298
rclavicle -7.45443e-015 -3.27995e-015
rhumerus 61.5794 -4.18762 -49.8978
rradius 47.257
rwrist -7.71317
rhand -46.5887 -78.9979
rfingers 7.12502
rthumb -19.3119 -251.941
lclavicle -7.45443e-015 -3.27995e-015
lhumerus 57.5834 3.04656 40.5952
lradius 45.6926
lwrist 15.2318
lhand -57.1574 -60.0738
lfingers 7.12502
lthumb -29.4417 -32.3869
rfemur 6.36723 -9.00835 16.4995
rtibia 57.9608
rfoot 0.656713 -10.8016
rtoes -7.37789
lfemur 178.743 172.241 175.543
ltibia 59.5556
lfoot -1.4222 2.12944
ltoes 25.9251
467
root 12.9062 13.9867 8.23377 -48.9474 0.590762 -181.921
lowerback -3.67837 -0.932411 2.0613
upperback -3.18557 -1.36391 -0.41828
thorax -1.26626 -0.756708 -1.61672
lowerneck -1.13255 -0.54438 -2.34224
upperneck -17.1926 -0.690375 4.85186
head -4.93616 -0.870752 1.96099
rclavicle 3.67752e-015 4.82053e-015
rhumerus 60.8692 -3.44913 -50.4987
rradius 47.1718
rwrist -7.11444
rhand -46.7613 -78.7652
rfingers 7.12502
rthumb -19.4778 -252.19
lclavicle 3.67752e-015 4.82053e-015
lhumerus 57.0305 2.22365 41.627
lradius 45.3322
lwrist 14.2828
lhand -57.2631 -60.3292
lfingers 7.12502
lthumb -29.5427 -32.6601
rfemur 9.85891 -9.05231 16.1271
rtibia 59.3639
rfoot 1.10665 -10.6128
rtoes -8.06996
lfemur 182.371 172.835 176.511
ltibia 59.8802
lfoot -1.37639 2.38882
ltoes 26.6075
468
root 12.9061 13.8779 8.26625 -49.7411 0.551041 -182.271
lowerback -4.1888 -0.955743 2.12405
upperback -3.09713 -1.40754 -0.234357
thorax -0.889116 -0.77265 -1.47623
lowerneck -1.49757 -1.29387 -2.06865
upperneck -16.5651 -0.632383 4.78314
head -4.68048 -0.0773657 1.81758
rclavicle 1.63997e-014 1.78906e-015
rhumerus 60.202 -2.78306 -51.1469
rradius 46.9462
rwrist -6.56122
rhand -46.9298 -78.4595
rfingers 7.12502
rthumb -19.6398 -252.513
lclavicle 1.63997e-014 1.78906e-015
lhumerus 56.5292 1.39765 42.6078
lradius 44.9122
lwrist 13.4449
lhand -57.3532 -60.4828
lfingers 7.12502
lthumb -29.6287 -32.8289
rfemur 12.8395 -9.07355 15.8618
rtibia 60.8483
rfoot 1.74829 -10.3093
rtoes -8.76207
lfemur 185.5 173.495 177.428
ltibia 60.3143
lfoot -0.962006 2.41262
ltoes 26.4715
469
root 12.9032 13.7835 8.28964 -50.2518 0.445514 -182.584
lowerback -4.81046 -0.944171 2.29465
upperback -3.1187 -1.41698 -0.0669807
thorax -0.565345 -0.777103 -1.41346
lowerneck -1.79249 -1.25615 -1.82287
upperneck -16.2548 -0.616553 4.4835
head -4.54079 -0.0664074 1.67957
rclavicle 2.18663e-014 -2.13694e-015
rhumerus 59.5358 -2.15518 -51.6906
rradius 46.6657
rwrist -6.07703
rhand -47.0169 -78.2093
rfingers 7.12502
rthumb -19.7235 -252.771
lclavicle 2.18663e-014 -2.13694e-015
lhumerus 56.0202 0.565324 43.3133
lradius 44.5076
lwrist 12.8794
lhand -57.4424 -60.7027
lfingers 7.12502
lthumb -29.7138 -33.064
rfemur 15.2006 -9.07447 15.6439
rtibia 62.4336
rfoot 2.57317 -9.88104
rtoes -9.51731
lfemur 188.014 174.179 178.185
ltibia 60.9315
lfoot -0.195147 2.15119
ltoes 25.4117
470
root 12.8977 13.7048 8.30237 -50.4677 0.320003 -182.823
lowerback -5.52892 -0.90544 2.51961
upperback -3.23908 -1.40274 0.0597235
thorax -0.291508 -0.774596 -1.4226
lowerneck -2.11882 -1.23526 -1.57278
upperneck -15.744 -0.629656 4.10203
head -4.84967 -0.042369 1.67578
rclavicle -8.74653e-015 -9.93923e-016
rhumerus 58.9204 -1.56164 -51.9922
rradius 46.3324
rwrist -5.76798
rhand -47.0144 -78.1062
rfingers 7.12502
rthumb -19.7212 -252.874
lclavicle -8.74653e-015 -9.93923e-016
lhumerus 55.5043 -0.26386 43.6591
lradius 44.1539
lwrist 12.6174
lhand -57.5333 -61.0083
lfingers 7.12502
lthumb -29.8006 -33.3851
rfemur 16.9031 -9.05513 15.3993
rtibia 64.1129
rfoot 3.63291 -9.2771
rtoes -10.4602
lfemur 189.862 174.847 178.693
ltibia 61.7718
lfoot 0.838369 1.60694
ltoes 23.695
471
root 12.8894 13.6425 8.30339 -50.431 0.199057 -182.976
lowerback -6.30462 -0.847679 2.77013
upperback -3.42424 -1.37372 0.140117
thorax -0.0546681 -0.768488 -1.4928
lowerneck -2.1106 -1.24207 -1.32631
upperneck -16.5216 -0.601551 3.93987
head -4.57747 -0.032148 1.42653
rclavicle -1.5207e-014 1.61513e-014
rhumerus 58.4069 -0.989531 -52.0077
rradius 45.9458
rwrist -5.68827
rhand -46.9809 -78.1792
rfingers 7.12502
rthumb -19.6889 -252.798
lclavicle -1.5207e-014 1.61513e-014
lhumerus 55.0024 -1.05302 43.6784
lradius 43.8562
lwrist 12.5899
lhand -57.6212 -61.3266
lfingers 7.12502
lthumb -29.8845 -33.7185
rfemur 17.9889 -9.00726 15.0906
rtibia 65.844
rfoot 4.96104 -8.47139
rtoes -11.5257
lfemur 191.09 175.461 178.939
ltibia 62.7905
lfoot 2.03596 0.825094
ltoes 21.9019
472
root 12.8785 13.5957 8.2921 -50.1973 0.0547891 -183.065
lowerback -7.1072 -0.774434 3.08321
upperback -3.63672 -1.33558 0.192463
thorax 0.16594 -0.760694 -1.62597
lowerneck -2.21157 -1.25012 -1.114
upperneck -16.925 -0.590858 3.71296
head -4.68788 -0.00460588 1.32064
rclavicle 5.66536e-015 -1.04362e-015
rhumerus 58.0233 -0.42097 -51.7651
rradius 45.525
rwrist -5.82475
rhand -46.9821 -78.411
rfingers 7.12502
rthumb -19.6901 -252.566
lclavicle 5.66536e-015 -1.04362e-015
lhumerus 54.5232 -1.76537 43.4198
lradius 43.6236
lwrist 12.7297
lhand -57.695 -61.5167
lfingers 7.12502
lthumb -29.9549 -33.9213
rfemur 18.5307 -8.90278 14.775
rtibia 67.4736
rfoot 6.5467 -7.45826
rtoes -12.7609
lfemur 191.807 175.971 179.033
ltibia 63.8666
lfoot 3.31612 -0.117863
ltoes 20.6159
473
root 12.8653 13.5631 8.26764 -49.8156 -0.172147 -183.137
lowerback -7.91288 -0.681511 3.53259
upperback -3.84509 -1.28768 0.244736
thorax 0.388403 -0.750128 -1.83438
lowerneck -2.34326 -1.2527 -0.951867
upperneck -17.3585 -0.56633 3.51925
head -4.80249 0.0341126 1.23241
rclavicle 7.95139e-016 -9.64106e-015
rhumerus 57.7635 0.145517 -51.333
rradius 45.1242
rwrist -6.11431
rhand -47.0334 -78.7691
rfingers 7.12502
rthumb -19.7394 -252.213
lclavicle 7.95139e-016 -9.64106e-015
lhumerus 54.0608 -2.36977 42.9785
lradius 43.4798
lwrist 12.9538
lhand -57.755 -61.5063
lfingers 7.12502
lthumb -30.0121 -33.9212
rfemur 18.5981 -8.70893 14.5716
rtibia 68.8578
rfoot 8.26617 -6.2501
rtoes -14.0044
lfemur 192.141 176.32 179.142
ltibia 64.809
lfoot 4.61245 -1.09286
ltoes 19.8131
474
root 12.8505 13.5431 8.2293 -49.3437 -0.495633 -183.209
lowerback -8.6669 -0.563682 4.11319
upperback -4.03686 -1.22283 0.31608
thorax 0.596749 -0.732339 -2.09368
lowerneck -2.58068 -1.24138 -0.902635
upperneck -17.6359 -0.520186 3.42833
head -4.85072 0.0826056 1.19317
rclavicle 5.86415e-015 -1.54058e-015
rhumerus 57.585 0.697831 -50.7973
rradius 44.7929
rwrist -6.45391
rhand -47.1002 -79.2112
rfingers 7.12502
rthumb -19.8036 -251.778
lclavicle 5.86415e-015 -1.54058e-015
lhumerus 53.6037 -2.85364 42.5419
lradius 43.4257
lwrist 13.1333
lhand -57.8102 -61.366
lfingers 7.12502
lthumb -30.0648 -33.7905
rfemur 18.2874 -8.39119 14.5373
rtibia 69.8334
rfoot 10.0085 -4.95645
rtoes -14.9612
lfemur 192.234 176.498 179.352
ltibia 65.3896
lfoot 5.84914 -1.94916
ltoes 19.714
475
root 12.8354 13.5337 8.1777 -48.843 -0.867318 -183.257
lowerback -9.31249 -0.433381 4.73527
upperback -4.20728 -1.14821 0.405435
thorax 0.76708 -0.709748 -2.35384
lowerneck -2.85951 -1.25098 -0.824228
upperneck -17.8519 -0.519232 3.25449
head -4.87288 0.110204 1.12444
rclavicle -3.27995e-015 -1.1778e-014
rhumerus 57.4624 1.23646 -50.2675
rradius 44.5407
rwrist -6.73601
rhand -47.1548 -79.651
rfingers 7.12502
rthumb -19.8561 -251.343
lclavicle -3.27995e-015 -1.1778e-014
lhumerus 53.1405 -3.20527 42.2411
lradius 43.4345
lwrist 13.1957
lhand -57.8733 -61.2241
lfingers 7.12502
lthumb -30.125 -33.6596
rfemur 17.7209 -7.93042 14.6311
rtibia 70.2404
rfoot 11.6775 -3.68494
rtoes -15.3248
lfemur 192.222 176.53 179.633
ltibia 65.4408
lfoot 6.93478 -2.57874
ltoes 20.3518
476
root 12.8212 13.5323 8.11457 -48.3825 -1.20191 -183.23
lowerback -9.80883 -0.309082 5.25733
upperback -4.34256 -1.07035 0.491849
thorax 0.894445 -0.683348 -2.55718
lowerneck -3.19846 -1.24028 -0.82884
upperneck -17.9247 -0.490743 3.16156
head -4.84054 0.147672 1.09354
rclavicle -2.22639e-014 9.34288e-015
rhumerus 57.3748 1.74785 -49.827
rradius 44.362
rwrist -6.90679
rhand -47.1802 -80.0295
rfingers 7.12502
rthumb -19.8805 -250.967
lclavicle -2.22639e-014 9.34288e-015
lhumerus 52.6964 -3.43177 42.1413
lradius 43.4493
lwrist 13.1154
lhand -57.9639 -61.2718
lfingers 7.12502
lthumb -30.2115 -33.723
rfemur 17.0408 -7.32233 14.7369
rtibia 69.9436
rfoot 13.2339 -2.51809
rtoes -15.1547
lfemur 192.216 176.483 179.859
ltibia 64.812
lfoot 7.75108 -2.94434
ltoes 21.0901
477
root 12.8088 13.5375 8.04225 -48.041 -1.37291 -183.045
lowerback -10.1059 -0.217026 5.49621
upperback -4.42653 -0.997074 0.533825
thorax 0.971394 -0.654035 -2.64443
lowerneck -3.65356 -1.1817 -1.00748
upperneck -17.733 -0.383827 3.29193
head -4.70693 0.214644 1.15849
rclavicle -1.39149e-015 1.50082e-014
rhumerus 57.3036 2.21564 -49.5217
rradius 44.2409
rwrist -6.96183
rhand -47.1668 -80.3464
rfingers 7.12502
rthumb -19.8676 -250.649
lclavicle -1.39149e-015 1.50082e-014
lhumerus 52.3042 -3.55023 42.2791
lradius 43.4089
lwrist 12.8767
lhand -58.086 -61.6375
lfingers 7.12502
lthumb -30.3279 -34.1101
rfemur 16.4005 -6.58524 14.6527
rtibia 68.853
rfoot 14.6903 -1.47845
rtoes -14.44
lfemur 192.304 176.445 179.813
ltibia 63.4668
lfoot 8.18934 -3.14581
ltoes 21.7055
478
root 12.7985 13.5498 7.96296 -47.8746 -1.2618 -182.636
lowerback -10.1685 -0.18579 5.30344
upperback -4.44508 -0.943143 0.486436
thorax 0.994347 -0.626474 -2.58065
lowerneck -4.2651 -1.11537 -1.18913
upperneck -17.0245 -0.279775 3.39919
head -4.92203 0.294518 1.34035
rclavicle -9.74045e-015 -1.05356e-014
rhumerus 57.256 2.6267 -49.362
rradius 44.1428
rwrist -6.92532
rhand -47.1221 -80.6201
rfingers 7.12502
rthumb -19.8246 -250.371
lclavicle -9.74045e-015 -1.05356e-014
lhumerus 51.9866 -3.57058 42.6277
lradius 43.2888
lwrist 12.4981
lhand -58.2203 -62.2863
lfingers 7.12502
lthumb -30.456 -34.7826
rfemur 15.9117 -5.76164 14.1937
rtibia 66.9289
rfoot 16.0023 -0.422069
rtoes -13.3306
lfemur 192.516 176.515 179.288
ltibia 61.404
lfoot 8.20058 -3.25386
ltoes 21.8595
